<svg width="15" height="22" viewBox="0 0 15 22" fill="none" xmlns="http://www.w3.org/2000/svg">
<path d="M6.83148 12.8502C2.92501 13.2033 -0.0511636 16.5042 0.000698021 20.4262V20.6251C0.000698021 21.3844 0.616291 22 1.37565 22C2.13502 22 2.75061 21.3844 2.75061 20.6251V20.3712C2.70928 17.9631 4.48641 15.9095 6.87548 15.6047C9.39736 15.3546 11.6445 17.1963 11.8946 19.7182C11.9094 19.8673 11.9168 20.017 11.917 20.1668V20.6251C11.917 21.3844 12.5326 22 13.2919 22C14.0513 22 14.6669 21.3844 14.6669 20.6251V20.1667C14.6624 16.1122 11.3719 12.829 7.31744 12.8335C7.15532 12.8337 6.99325 12.8392 6.83148 12.8502Z" fill="#2B1B12"/>
<path d="M7.33386 10.9996C10.3713 10.9996 12.8337 8.53727 12.8337 5.49982C12.8337 2.46237 10.3713 0 7.33386 0C4.29641 0 1.83403 2.46237 1.83403 5.49982C1.83704 8.53603 4.29765 10.9966 7.33386 10.9996ZM7.33386 2.74991C8.85258 2.74991 10.0838 3.9811 10.0838 5.49982C10.0838 7.01855 8.85258 8.24973 7.33386 8.24973C5.81513 8.24973 4.58394 7.01855 4.58394 5.49982C4.58394 3.9811 5.81513 2.74991 7.33386 2.74991Z" fill="#2B1B12"/>
</svg>
